Coordinates
nRows=15
nColumns=24

# SIMM Motion File Header:
name Coordinates
datacolumns 24
datarows 15
otherdata 1
range 0.66700000000000004000 0.68100000000000005000

Units are S.I. units (second, meters, Newtons, ...)
Angles are in degrees.

endheader
time	pelvis_tx	pelvis_ty	pelvis_tz	pelvis_tilt	pelvis_list	pelvis_rotation	hip_flexion_r	hip_adduction_r	hip_rotation_r	knee_angle_r	ankle_angle_r	subtalar_angle_r	mtp_angle_r	hip_flexion_l	hip_adduction_l	hip_rotation_l	knee_angle_l	ankle_angle_l	subtalar_angle_l	mtp_angle_l	lumbar_extension	lumbar_bending	lumbar_rotation
      0.66700000000000004000	     -0.83649536143499759000	      0.93775570150318399000	     -0.24188791218083941000	     20.12574610410763800000	      3.88499290194869800000	     -4.65050936763929630000	     -0.34533400953701138000	     -7.43304691536504510000	      2.47916868576446970000	    -64.39300902383153900000	      3.05052828466492000000	     -0.00000000000000124313	      0.00000000000000122069	    -15.21140020770338300000	      7.97674249130528960000	      4.43164021110485780000	    -13.61452650067014100000	      6.21452985627858650000	     -0.00000000000000307778	      0.00000000000010812173	    -29.88763814097198300000	     -6.10905660323312550000	      1.98266430873084490000
      0.66800000000000004000	     -0.83494027254230463000	      0.93768389960351384000	     -0.24209047067859568000	     20.14997796739935900000	      3.84395817185619170000	     -4.57230046192656570000	     -0.25772336384783751000	     -7.36717522607056270000	      2.39939284896471290000	    -64.21624191333799600000	      3.16558148899829960000	     -0.00000000000000125713	      0.00000000000000122083	    -15.44874211520657100000	      7.91920933716612560000	      4.50367803332193170000	    -13.43152031489983500000	      6.19545159668739310000	     -0.00000000000000307140	      0.00000000000010889509	    -29.91992288140190900000	     -6.02849447810401530000	      1.91703232063518050000
      0.66900000000000004000	     -0.83338551818585238000	      0.93760867486440203000	     -0.24229331887502259000	     20.17413225119582500000	      3.80302235166947880000	     -4.49348654870842260000	     -0.17128173903580765000	     -7.30161329453669430000	      2.31864216225357330000	    -64.03632026113832900000	      3.27732843882399030000	     -0.00000000000000127197	      0.00000000000000122108	    -15.68601643032880200000	      7.86102015644182210000	      4.57537410389773310000	    -13.24799670217919000000	      6.17594110479550550000	     -0.00000000000000307541	      0.00000000000010972148	    -29.95207926913715100000	     -5.94775982818692750000	      1.85112344776280780000
      0.67000000000000004000	     -0.83183110010706329000	      0.93752997135712290000	     -0.24249645295855943000	     20.19819775998160000000	      3.76219450013520530000	     -4.41408333790082620000	     -0.08599616249594664600	     -7.23637110040039570000	      2.23694597387567610000	    -63.85325190304806900000	      3.38579307917615950000	     -0.00000000000000128750	      0.00000000000000122101	    -15.92320508617719100000	      7.80218380680021360000	      4.64669670167382080000	    -13.06396645524976900000	      6.15601843197419730000	     -0.00000000000000306687	      0.00000000000011059852	    -29.98409299330978700000	     -5.86686592038788480000	      1.78494647101026540000
      0.67100000000000004000	     -0.83027701966502310000	      0.93744773403338244000	     -0.24269986874210933000	     20.22216314355545200000	      3.72148376236276150000	     -4.33410660598197680000	     -0.00185382260923700830	     -7.17145853113515840000	      2.15433377832445800000	    -63.66704369813435000000	      3.49100030157313100000	     -0.00000000000000130299	      0.00000000000000121829	    -16.16028986574190900000	      7.74270945111042600000	      4.71761436821392980000	    -12.87944059390125800000	      6.13570298473058710000	     -0.00000000000000303843	      0.00000000000011148735	    -30.01594960926524500000	     -5.78582622184477020000	      1.71851008053693020000
      0.67200000000000004000	     -0.82872327785518296000	      0.93736190871542813000	     -0.24290356165191801000	     20.24601690664651700000	      3.68089937318790430000	     -4.25357218305567560000	      0.08115792488114816100	     -7.10688539926967170000	      2.07083520371163620000	    -63.47770153504630700000	      3.59297589025113110000	     -0.00000000000000131816	      0.00000000000000121384	    -16.39725239772029400000	      7.68260657356854450000	      4.78809594698650540000	    -12.69443038641711000000	      6.11501358728363530000	     -0.00000000000000302159	      0.00000000000011240241	    -30.04763454854448000000	     -5.70465441034107280000	      1.65182286263417000000
      0.67300000000000004000	     -0.82716987532952890000	      0.93727244208497251000	     -0.24310752671792626000	     20.26974741888768200000	      3.64045066078384540000	     -4.17249593962661610000	      0.16305154964413401000	     -7.04266145978014800000	      1.98647999859438480000	    -63.28523033816502900000	      3.69174646845366670000	     -0.00000000000000133337	      0.00000000000000120887	    -16.63407415308078500000	      7.62188499596903850000	      4.85811062420494720000	    -12.50894737177486200000	      6.09396855147128140000	     -0.00000000000000298684	      0.00000000000011326588	    -30.07913312955600600000	     -5.62336438449426000000	      1.58489328631120530000
      0.67400000000000004000	     -0.82561681240960672000	      0.93717928163078434000	     -0.24331175856313186000	     20.29334292019936500000	      3.60014704028320850000	     -4.09089377239784380000	      0.24383934422607137000	     -6.97879641202271730000	      1.90129802072239130000	    -63.08963407365784100000	      3.78733944395229520000	     -0.00000000000000134954	      0.00000000000000120229	    -16.87073644315716300000	      7.56055487129436180000	      4.92762796525139900000	    -12.32300334627776200000	      6.07258547549181230000	     -0.00000000000000292632	      0.00000000000011409353	    -30.11043056298328900000	     -5.54197026308904390000	      1.51772969502464460000
      0.67500000000000004000	     -0.82406408911395812000	      0.93708237565745900000	     -0.24351625139832322000	     20.31679153372763800000	      3.55999802463991260000	     -4.00878159256014310000	      0.32353341384459655000	     -6.91529992754253970000	      1.81531922280303990000	    -62.89091575599180600000	      3.87978295585590470000	     -0.00000000000000136647	      0.00000000000000119426	    -17.10722041523212400000	      7.49862671559807570000	      4.99661796067209090000	    -12.13661041096895400000	      6.05088150174772640000	     -0.00000000000000287921	      0.00000000000011492005	    -30.14151196623075900000	     -5.46048640232559900000	      1.45034029076896220000
      0.67600000000000005000	     -0.82251170516702610000	      0.93698167320690084000	     -0.24372099903934219000	     20.34008126145190000000	      3.52001321250373330000	     -3.92617530223712800000	      0.40214568242816812000	     -6.85218164591527670000	      1.72857363118706680000	    -62.68907745609919900000	      3.96910582178489420000	     -0.00000000000000138288	      0.00000000000000118779	    -17.34350704816686700000	      7.43611140162992970000	      5.06505111996831840000	    -11.94978094969152200000	      6.02887362060966050000	     -0.00000000000000283475	      0.00000000000011576951	    -30.17236235929805200000	     -5.37892738224028030000	      1.38273312248676740000
      0.67700000000000005000	     -0.82095966001617049000	      0.93687712401433265000	     -0.24392599493073858000	     20.36319998271955400000	      3.48020228495862140000	     -3.84309077200585670000	      0.47968789462194589000	     -6.78945118239234360000	      1.64109132169443540000	    -62.48412031362527600000	      4.05533748779099130000	     -0.00000000000000139844	      0.00000000000000118175	    -17.57957714832125600000	      7.37302016992525380000	      5.13289857882435200000	    -11.76252764090381900000	      6.00657927166179560000	     -0.00000000000000277209	      0.00000000000011663409	    -30.20296666688075500000	     -5.29730799830926190000	      1.31491607152027680000
      0.67800000000000005000	     -0.81940795286206802000	      0.93676867853141854000	     -0.24413123211298943000	     20.38613547769890700000	      3.44057501728450220000	     -3.75954384343188950000	      0.55617159238086189000	     -6.72711814551035750000	      1.55290241885524160000	    -62.27604455228234300000	      4.13850797898430670000	     -0.00000000000000141603	      0.00000000000000117669	    -17.81541135958515600000	      7.30936463121491100000	      5.20013206011286130000	    -11.57486349348460800000	      5.98401576090583110000	     -0.00000000000000270199	      0.00000000000011751032	    -30.23330975157180900000	     -5.21564327502924030000	      1.24689685011270730000
      0.67900000000000005000	     -0.81785658267813810000	      0.93665628790500355000	     -0.24433670319808848000	     20.40887544262360000000	      3.40114127925372230000	     -3.67555032909020160000	      0.63160809940680729000	     -6.66519213660324090000	      1.46403709467527790000	    -62.06484949933005900000	      4.21864785170763670000	     -0.00000000000000143503	      0.00000000000000117044	    -18.05099017582224600000	      7.24515674677119840000	      5.26672384448647170000	    -11.38680184501531300000	      5.96119965869010570000	     -0.00000000000000260338	      0.00000000000011835837	    -30.26337643980068000000	     -5.13394846260781000000	      1.17868300579913690000
      0.68000000000000005000	     -0.81630554823695978000	      0.93653990398816278000	     -0.24454240036996000000	     20.43140750288614900000	      3.36191104505423290000	     -3.59112600729096520000	      0.70600850705693874000	     -6.60368276667847990000	      1.37452555727881550000	    -61.85053360763781400000	      4.29578814836754750000	     -0.00000000000000145402	      0.00000000000000116425	    -18.28629394921644300000	      7.18040884377120840000	      5.33264681235210870000	    -11.19835640554182800000	      5.93814703316365390000	     -0.00000000000000250224	      0.00000000000011921881	    -30.29315154662724700000	     -5.05223903890279490000	      1.11028191642133640000
      0.68100000000000005000	     -0.81475484812473564000	      0.93641947930042457000	     -0.24474831538266326000	     20.45371921963454700000	      3.32289438850747130000	     -3.50628661405682920000	      0.77938366695976957000	     -6.54259965097522930000	      1.28439804122245560000	    -61.63309447710086200000	      4.36996035114350350000	     -0.00000000000000147214	      0.00000000000000115799	    -18.52130290000637200000	      7.11513359681981590000	      5.39787446945494500000	    -11.00954124808416300000	      5.91487329428962920000	     -0.00000000000000240604	      0.00000000000012014306	    -30.32261989252565500000	     -4.97053069541848470000	      1.04170079118189010000
